<svg width="27" height="22" viewBox="0 0 27 22" fill="none" xmlns="http://www.w3.org/2000/svg">
<path d="M0 2.25C0 1.28367 0.863638 0.5 1.92857 0.5H25.0714C26.1382 0.5 27 1.28367 27 2.25C27 3.21797 26.1382 4 25.0714 4H1.92857C0.863638 4 0 3.21797 0 2.25ZM0 11C0 10.032 0.863638 9.25 1.92857 9.25H25.0714C26.1382 9.25 27 10.032 27 11C27 11.968 26.1382 12.75 25.0714 12.75H1.92857C0.863638 12.75 0 11.968 0 11ZM25.0714 21.5H1.92857C0.863638 21.5 0 20.718 0 19.75C0 18.782 0.863638 18 1.92857 18H25.0714C26.1382 18 27 18.782 27 19.75C27 20.718 26.1382 21.5 25.0714 21.5Z" fill="#1267FC"/>
</svg>
